<svg width="157" height="30" viewBox="0 0 157 30" fill="none" xmlns="http://www.w3.org/2000/svg">
<path d="M127.833 29.6893C127.733 29.6644 127.335 29.5649 126.936 29.515C125.667 29.3159 125.069 28.1954 125.816 27.4485C126.09 27.1746 126.389 27.1497 128.106 27.2493C130.273 27.3987 131.343 27.2244 132.788 26.5023C133.908 25.9546 135.253 24.5603 135.825 23.3652C136.248 22.4937 136.771 20.452 136.597 20.2777C136.548 20.228 136.074 20.4022 135.551 20.6263C134.779 20.95 134.381 21.0247 133.634 20.9251C131.817 20.701 131.069 19.6802 130.945 17.2401C130.87 15.6218 130.87 15.5968 131.369 15.3728C132.065 15.0491 132.29 15.3479 132.539 17.0161C132.762 18.51 132.962 18.8586 133.734 19.0328C134.431 19.2071 135.377 18.4602 136.074 17.265C136.597 16.3438 136.721 16.2442 137.344 16.1944C137.991 16.1447 138.066 16.1944 138.364 16.8418C138.813 17.8626 138.813 21.8215 138.364 23.2407C137.668 25.4815 135.7 27.6725 133.385 28.7681C132.041 29.4155 128.654 29.9632 127.833 29.6893Z" fill="#A1BF38"/>
<path d="M109.98 23.8133C109.532 23.4647 109.532 23.415 109.457 18.8087C109.383 15.6466 109.308 14.1777 109.159 14.2026C107.615 14.4764 107.067 14.4764 106.968 14.1777C106.893 14.0034 106.942 13.7046 107.042 13.4805C107.241 13.0821 108.561 12.4098 109.133 12.3849C109.432 12.3849 109.457 12.136 109.457 9.67101C109.457 8.1522 109.532 6.78282 109.656 6.58363C109.881 6.18526 110.627 6.11056 110.926 6.45914C111.026 6.58363 111.175 7.90324 111.25 9.34739L111.375 11.9866L113.416 12.0364C115.134 12.0861 115.507 12.136 115.682 12.4098C115.831 12.6589 115.831 12.858 115.607 13.2564C115.333 13.7543 115.284 13.7792 113.366 13.8291L111.399 13.9037L111.548 16.7422C111.823 22.3443 111.823 23.3153 111.425 23.7635C110.976 24.2615 110.553 24.2864 109.98 23.8133Z" fill="#A1BF38"/>
<path d="M84.4594 21.9957C84.1857 21.5724 84.1111 20.8752 84.0112 18.0368C83.8866 14.6258 83.4137 10.2437 82.841 7.28073C82.4926 5.46316 82.4926 5.58765 82.841 5.23908C83.19 4.8905 83.9119 4.8656 84.2103 5.18927C84.8577 5.96112 85.8287 13.0572 86.3269 20.4271C86.3769 21.2487 86.2523 21.7716 85.904 22.1202C85.3812 22.6431 84.8577 22.5932 84.4594 21.9957Z" fill="#A1BF38"/>
<path d="M91.9296 21.7467C90.112 21.3732 88.4682 20.1034 87.6717 18.4601C87.2481 17.5887 87.1735 17.265 87.2734 16.3936C87.5718 13.5302 90.3111 11.4388 92.9752 12.0364C94.5937 12.4098 95.3156 13.5801 94.892 15.1486C94.4938 16.5928 92.8007 17.6136 90.8086 17.6136C89.7383 17.6136 89.6384 17.7381 90.2612 18.3108C91.1323 19.1075 91.9296 19.3813 93.3981 19.3813C94.6183 19.3813 94.9666 19.3067 96.0376 18.7838C97.357 18.1365 97.8299 18.0617 98.2781 18.4103C98.9255 18.9083 98.8762 19.4561 98.1043 20.203C96.8588 21.4729 93.9709 22.17 91.9296 21.7467ZM92.2033 15.7711C92.7508 15.5221 93.0245 15.2732 93.0998 14.9246C93.4727 13.4058 90.9086 13.605 89.8629 15.1735C89.6384 15.5221 89.4393 15.8707 89.4393 15.9703C89.4646 16.294 91.4061 16.1446 92.2033 15.7711Z" fill="#A1BF38"/>
<path d="M105.125 21.0497C104.677 20.5517 104.08 19.8795 103.831 19.5558L103.357 18.9333L102.635 19.979C101.59 21.4729 100.569 21.7717 100.146 20.6513C99.7473 19.6802 99.3737 17.4394 99.1745 14.8749C99.0753 13.4556 98.8509 11.2646 98.7017 9.96987C98.5518 8.7001 98.4772 7.57964 98.5272 7.50498C98.5771 7.40534 98.7763 7.35559 98.9754 7.35559C99.5482 7.35559 100.071 9.17317 100.668 13.3063C100.967 15.3978 101.291 17.2402 101.39 17.4145C101.49 17.6137 101.839 17.1157 102.635 15.5969C103.805 13.3312 104.229 12.9328 105.051 13.3063C105.872 13.6798 105.847 14.3271 104.951 16.0202L104.154 17.539L105.773 19.0578C107.441 20.6513 107.665 21.0746 107.042 21.6223C106.47 22.1452 105.997 21.9958 105.125 21.0497Z" fill="#A1BF38"/>
<path d="M120.039 20.5765L119.492 19.9541L118.446 20.4769C115.682 21.8712 112.943 20.3773 113.217 17.6136C113.267 16.9911 113.442 16.543 113.715 16.2691C114.313 15.6715 114.736 16.0201 114.886 17.1904C115.035 18.2859 115.284 18.8585 115.732 18.9581C116.23 19.0826 117.126 18.7838 117.724 18.3108C118.172 17.9373 118.297 17.6883 118.396 16.6924C118.545 15.3977 118.844 15.0242 119.716 15.0242C120.338 15.0242 120.662 15.4723 120.961 16.7173C121.085 17.1904 121.409 18.0867 121.708 18.7341C122.305 19.9789 122.28 20.4769 121.658 20.9002C121.085 21.3235 120.637 21.2488 120.039 20.5765Z" fill="#A1BF38"/>
<path d="M123.674 20.4022C123.5 20.1781 122.679 16.7919 122.679 16.2442C122.679 16.0948 122.853 15.8707 123.052 15.7711C123.376 15.5968 123.525 15.6466 124.048 16.1944L124.645 16.8418L125.293 16.3936C126.065 15.8707 128.057 15.2234 128.928 15.2234C129.65 15.2234 130.148 15.6965 130.148 16.3936C130.148 17.041 129.849 17.2401 128.405 17.5389C126.737 17.8875 126.04 18.3606 125.467 19.5557C125.069 20.4023 124.919 20.5516 124.422 20.6014C124.123 20.6263 123.799 20.5267 123.674 20.4022Z" fill="#A1BF38"/>
<path d="M66.0349 23.7638C65.4622 23.0168 65.2382 22.1204 65.0888 20.0788C65.014 19.2074 64.9145 18.3359 64.8647 18.1617C64.5908 17.1906 62.9475 18.6098 62.1756 20.4772C61.6527 21.7221 61.2046 22.0458 60.5075 21.6972C59.9596 21.4233 59.7854 20.8258 59.6609 18.4106C59.5364 16.2444 59.7107 15.0991 60.2087 14.7755C60.6319 14.5265 60.7564 14.7256 61.0801 16.0701C61.2046 16.6179 61.354 17.091 61.4038 17.091C61.4536 17.091 61.7524 16.8669 62.076 16.593C62.8479 15.9457 64.0181 15.4228 64.7153 15.4228C65.4373 15.4228 66.4084 16.0204 66.8565 16.7424C67.0557 17.0661 67.3047 17.9375 67.4043 18.6596C67.5039 19.3817 67.728 20.5768 67.8774 21.2988C68.2259 22.8675 68.2259 23.8634 67.9272 24.1621C67.8027 24.2866 67.4292 24.3862 67.1055 24.3862C66.6324 24.3614 66.4084 24.212 66.0349 23.7638Z" fill="#476675"/>
<path d="M73.3049 22.419C71.7365 21.921 70.6162 21.0247 69.9688 19.7548C68.7986 17.4392 70.9645 14.0033 73.8278 13.6049C75.5461 13.3808 76.9901 14.2523 77.2392 15.6715C77.5129 17.0658 75.8698 19.0328 74.0522 19.5059C72.7322 19.8545 72.7075 19.9042 73.4049 20.203C74.3506 20.6014 76.2435 20.452 77.4137 19.8793C77.9611 19.6303 78.8576 18.8834 79.5796 18.1614C80.5506 17.1405 80.9243 16.8915 81.3725 16.8915C82.5174 16.8915 82.6919 17.7629 81.8201 19.0328C79.9532 21.7218 76.019 23.2904 73.3049 22.419ZM73.5794 17.9871C75.7952 16.8168 76.019 15.1735 73.903 15.5719C72.8074 15.796 71.3135 17.5638 71.6119 18.3107C71.7365 18.6593 72.583 18.5099 73.5794 17.9871Z" fill="#476675"/>
<path d="M56.2745 21.8463C55.901 21.5724 55.8761 21.3981 55.7765 13.2314C55.7018 7.97789 55.7267 4.74109 55.8512 4.5419C56.1002 4.06884 56.7475 4.11864 56.9468 4.6166C57.1708 5.16437 57.6688 12.3351 57.8182 17.4642C57.9178 21.1242 57.9178 21.5226 57.619 21.7965C57.2455 22.1949 56.7974 22.2198 56.2745 21.8463Z" fill="#476675"/>
<path d="M37.352 21.2239L36.6797 20.5018L36.0821 21.0247C35.0862 21.8962 34.165 21.946 33.194 21.1741C32.4719 20.6015 32.0984 19.1573 32.1731 17.041C32.2229 15.4475 32.2478 15.2981 32.5964 15.2981C32.92 15.2981 33.0197 15.5471 33.3682 17.2402C33.6172 18.4851 33.8911 19.3067 34.1151 19.5308C34.4637 19.8794 34.4887 19.8794 34.8622 19.4561C35.0862 19.2321 35.5593 18.4851 35.9079 17.8128C36.5801 16.5679 36.9038 16.3438 37.8001 16.5928C38.1736 16.6924 38.2483 16.8667 38.3479 17.8626C38.4724 19.0578 38.7214 19.7051 39.0202 19.7051C39.4683 19.7051 40.5639 17.8377 41.0369 16.294C41.5847 14.4764 41.9333 14.1278 42.8545 14.5013C43.6512 14.8001 43.8007 15.4723 43.4272 16.6924C42.3316 20.1533 40.7133 21.9708 38.7214 21.9708C38.1736 21.9211 37.8997 21.7966 37.352 21.2239Z" fill="#476675"/>
<path d="M48.2821 21.6224C46.1658 21.1493 44.647 19.755 44.647 18.2611C44.647 17.539 45.1699 16.4684 45.7425 15.9953C46.2903 15.5472 47.5352 15.0243 48.1079 15.0243C48.4067 15.0243 48.8299 14.8998 49.0291 14.7504C49.9503 14.0533 52.1663 14.7255 52.9879 15.9704C53.71 17.066 53.7598 17.9872 53.1622 19.2072C52.5896 20.4024 51.6185 21.1244 50.1994 21.4979C49.2034 21.7469 48.9544 21.7718 48.2821 21.6224ZM50.1994 19.1325C51.8177 18.4105 51.6185 17.2154 49.7512 16.5182C48.5063 16.0452 47.9585 16.1696 47.0621 17.1406C46.4148 17.8378 46.3899 18.1864 46.9376 18.7093C47.834 19.5558 48.9544 19.7052 50.1994 19.1325Z" fill="#476675"/>
<path d="M143.743 27.8719C143.543 27.5483 143.444 26.5025 143.37 23.6143C143.294 21.1245 143.17 19.3815 142.971 18.6595C142.598 17.1407 142.598 16.5182 142.996 16.5182C143.17 16.5182 143.469 16.6428 143.643 16.817C143.967 17.0909 144.042 17.066 144.988 16.1946C146.208 15.0741 147.303 14.7006 148.324 15.0741C151.088 16.0452 151.536 20.1783 149.021 21.4979C147.528 22.2947 146.008 21.971 145.735 20.7759C145.56 20.0289 146.183 19.5061 147.229 19.5061C147.727 19.5061 148.175 19.3815 148.349 19.2073C148.996 18.5599 148.473 16.817 147.577 16.568C147.029 16.4187 145.959 16.9166 145.037 17.7382L144.514 18.2113L144.814 19.755C144.988 20.6016 145.212 22.6183 145.312 24.2119C145.486 26.6021 145.461 27.2246 145.262 27.6727C144.913 28.3699 144.116 28.4694 143.743 27.8719Z" fill="#476675"/>
<path d="M153.303 20.95C151.61 19.8047 150.614 14.9744 150.739 8.67509C150.789 6.03587 150.814 5.96117 151.212 5.91138C151.86 5.81178 152.009 6.48404 152.308 10.5425C152.606 14.7752 152.98 16.9662 153.602 18.3107C154.15 19.5059 154.498 19.7051 155.495 19.4561C156.44 19.2071 156.864 19.3565 156.864 19.9541C156.864 21.199 154.623 21.8463 153.303 20.95Z" fill="#476675"/>
<path d="M140.257 20.7259C139.958 20.3773 140.157 19.7549 140.655 19.481C140.929 19.3316 141.128 19.3565 141.476 19.5806C141.999 19.9292 142.025 20.0287 141.651 20.5765C141.303 21.0496 140.581 21.1243 140.257 20.7259Z" fill="#476675"/>
<path d="M17.1799 15.3124C16.6322 14.7646 16.682 13.8185 17.3293 13.2209C18.2008 12.4242 21.1637 11.1294 24.9482 9.90939L26.8156 9.31184L27.2638 7.79303C27.5128 6.94652 27.936 5.27832 28.2099 4.0583C28.7079 1.86724 28.7079 1.84235 28.3344 1.96683C28.1103 2.01663 27.3883 2.19093 26.7409 2.34031C25.1474 2.68889 23.6286 3.16196 21.6866 3.93381L20.1179 4.55627L19.1718 6.8967C18.649 8.19145 17.9767 9.95921 17.653 10.8306C17.2048 12.0507 16.9808 12.4242 16.7069 12.4242C16.1591 12.4242 16.3334 11.3535 17.3045 8.73919C17.7775 7.46935 18.3999 5.80119 18.6987 5.02934L19.2216 3.63503L20.3171 3.23666C20.9147 3.01257 22.0849 2.58929 22.9066 2.26561C24.1017 1.81745 26.8903 1.0456 29.4051 0.472935C29.5794 0.423138 29.8532 0.522727 29.9777 0.647219C30.2018 0.871303 30.1271 1.31948 29.6042 3.56033C29.0316 5.97548 28.185 9.08779 27.8863 9.90939C27.8115 10.1335 26.6911 10.6066 24.2262 11.4282C20.093 12.8225 18.9726 13.2956 18.3999 13.8185C17.5036 14.6401 18.3999 14.7397 20.9894 14.0924C21.9604 13.8433 23.5291 13.3454 24.5001 12.9719C26.6662 12.1254 27.687 11.9511 28.0356 12.3744C28.4589 12.8723 28.1103 13.4201 27.3883 13.4201C27.0397 13.4201 26.1932 13.6442 25.496 13.8932C23.3548 14.7148 19.6449 15.6609 18.5991 15.6609C17.8024 15.6858 17.4538 15.6112 17.1799 15.3124Z" fill="#EDBF17"/>
<path d="M9.98468 13.2957C9.16308 12.9969 7.74384 12.4741 6.79772 12.1006C5.87648 11.7271 4.75605 11.3288 4.30788 11.2043C3.68542 11.03 3.48624 10.8557 3.41154 10.4822C3.36174 10.2083 3.18745 9.71038 3.01317 9.33687C1.94254 6.89682 0.224546 0.87144 0.448631 0.273876C0.498428 0.124486 0.697617 0 0.847006 0C1.32008 0 4.15849 0.672254 7.34549 1.5686L10.1839 2.34045L11.0553 5.00457C12.6738 10.0341 13.8689 12.499 14.3917 11.9761C14.7901 11.5777 14.068 8.73931 12.4746 4.43191C12.0264 3.21189 12.0264 2.29065 12.4995 2.01676C12.9476 1.74288 13.3958 2.16615 13.3958 2.8882C13.3958 3.21189 13.6946 4.30742 14.068 5.32825C16.1844 11.2043 16.1346 13.5696 13.9684 13.2708C12.9227 13.1214 11.877 11.0798 9.81045 5.07927L9.2129 3.33638L7.81857 2.8882C6.10057 2.34045 2.04213 1.41921 1.91763 1.54369C1.74335 1.71798 2.96337 6.1748 3.73522 8.06709L4.50707 9.98425L7.61936 11.2292C9.33737 11.9263 11.13 12.6235 11.628 12.7977C12.2753 13.0219 12.4995 13.1962 12.4746 13.4202C12.375 13.9182 11.6031 13.8684 9.98468 13.2957Z" fill="#A1BF38"/>
<path d="M0.224086 29.5794C0.0995941 29.5296 0 29.3304 0 29.1561C0 28.6831 1.17023 23.7282 1.79269 21.6368L2.31555 19.8441L5.27846 18.873C10.283 17.2547 12.499 16.1591 11.9761 15.6363C11.6524 15.3126 9.33687 15.8106 6.72256 16.7567C3.0874 18.0514 2.21595 18.1759 1.94208 17.4539C1.76778 17.0057 2.21596 16.6073 2.88821 16.6073C3.21189 16.6073 4.30742 16.3085 5.32825 15.9351C7.79323 15.0637 10.5071 14.3665 11.5031 14.3665C13.1463 14.3665 13.8684 15.7857 12.7729 16.8314C11.8766 17.6779 9.08791 18.898 4.88009 20.2425L3.28659 20.7654L2.68902 22.9315C1.94208 25.5707 1.41921 27.961 1.5686 28.1103C1.74289 28.2846 6.1997 27.0646 8.16667 26.2928L10.1087 25.521L10.4822 24.4752C10.6814 23.9025 11.3288 22.2842 11.9014 20.8649C12.4741 19.4706 12.9471 18.2257 12.9471 18.1261C12.9471 17.8024 13.4202 17.5535 13.6941 17.7278C13.9182 17.8771 13.8933 18.1013 13.5696 19.2466C12.9223 21.4127 10.9553 26.3924 10.6814 26.5169C10.5569 26.5916 10.1336 26.7409 9.78504 26.8655C9.43651 26.99 8.39079 27.3883 7.46954 27.7369C6.12501 28.2597 4.33232 28.7577 0.821649 29.5794C0.572662 29.6292 0.348578 29.6292 0.224086 29.5794Z" fill="#C22621"/>
<path d="M26.6911 29.5793C25.6204 29.3303 23.6285 28.7825 22.3089 28.409L19.8938 27.7119L18.6738 24.1017C16.9807 19.122 16.4329 17.9766 15.7607 17.9766C15.1133 17.9766 15.7607 20.9893 17.3791 25.4462C18.0264 27.2388 18.0513 27.4878 17.7276 27.936C17.404 28.3841 16.8562 28.1352 16.8562 27.5625C16.8562 27.3136 16.4329 25.8445 15.91 24.276C14.3912 19.6697 14.1423 17.7526 15.0635 17.1301C16.5574 16.0844 17.7028 17.7775 19.844 24.1017C20.342 25.5706 20.7901 26.8156 20.815 26.8405C21.1138 27.1393 28.0106 28.8323 28.2597 28.6829C28.658 28.4589 25.9939 20.2922 25.4213 19.9934C25.1473 19.844 18.6489 17.3044 18.1011 17.155C17.9019 17.0803 17.7774 16.906 17.8273 16.7317C17.9268 16.2338 18.6489 16.3832 21.4375 17.4538C22.782 17.9766 24.4502 18.5991 25.1723 18.848C26.4421 19.2962 26.4918 19.3211 26.7907 20.1926C26.9649 20.6905 27.3883 21.8359 27.7617 22.782C28.5086 24.6992 29.6291 29.0315 29.5295 29.654C29.3801 30.127 29.0066 30.127 26.6911 29.5793Z" fill="#476675"/>
</svg>
