<svg width="110" height="41" viewBox="0 0 110 41" fill="none" xmlns="http://www.w3.org/2000/svg">
<g clip-path="url(#clip0_1445_5258)">
<path d="M28.6934 13.1112C29.4471 13.1112 29.8491 12.6456 29.8491 11.8613C29.8491 11.0771 29.4471 10.6115 28.6934 10.6115H27.3114V13.0867H28.6934V13.1112ZM27.3114 16.4196C27.3114 16.4196 27.1607 16.4931 26.8341 16.4931C26.4823 16.4931 26.3315 16.4196 26.3315 16.4196V9.82727H28.7939C30.0501 9.82727 30.829 10.6605 30.829 11.8613C30.829 13.0622 30.0501 13.8954 28.7939 13.8954H27.2863V16.4196H27.3114Z" fill="#53565A"/>
<path d="M33.442 14.214C32.8139 14.214 32.4872 14.459 32.4872 15.0472C32.4872 15.6599 32.7887 15.8804 33.3164 15.8804C34.0701 15.8804 34.4219 15.2678 34.4219 14.6061V14.2875C34.1706 14.263 33.7938 14.214 33.442 14.214ZM33.5425 11.5427C34.9244 11.5427 35.3515 12.1554 35.3515 13.3317V16.4196C35.3515 16.4196 35.251 16.4931 34.9747 16.4931C34.7485 16.4931 34.5978 16.4196 34.5978 16.4196L34.447 15.8314C34.1958 16.3216 33.6681 16.5911 32.9646 16.5911C32.0852 16.5911 31.5073 16.0765 31.5073 15.0472C31.5073 14.0424 32.1355 13.6013 33.3164 13.6013C33.7435 13.6013 34.1455 13.6258 34.3968 13.6503V13.3072C34.3968 12.67 34.1455 12.3269 33.4169 12.3269C32.7636 12.3269 32.1355 12.5475 32.1355 12.5475C32.1355 12.5475 32.0098 12.474 31.9093 12.2779C31.834 12.0819 31.8591 11.9103 31.8591 11.8858C31.8842 11.8858 32.5877 11.5427 33.5425 11.5427Z" fill="#53565A"/>
<path d="M38.3165 10.9056C38.0904 10.8566 37.8894 10.783 37.7637 10.6115L38.6683 9.31262C38.9698 9.26361 39.3466 9.43515 39.4974 9.65572L38.3165 10.9056ZM40.5276 16.4196C40.5276 16.4196 40.3768 16.4931 40.0502 16.4931C39.7235 16.4931 39.5728 16.4196 39.5728 16.4196V13.1112C39.5728 12.5965 39.2964 12.3025 38.6934 12.3025C38.2662 12.3025 37.8642 12.523 37.613 12.8906V16.4196C37.613 16.4196 37.4371 16.4931 37.1356 16.4931C36.809 16.4931 36.6582 16.4196 36.6582 16.4196V11.6898C36.6582 11.6898 36.809 11.6163 37.1356 11.6163C37.4371 11.6163 37.613 11.6898 37.613 11.6898V12.1064C37.9647 11.7388 38.4421 11.5182 39.0451 11.5182C39.9999 11.5182 40.5024 12.0819 40.5024 12.9151V16.4196H40.5276Z" fill="#53565A"/>
<path d="M43.4672 11.5427C44.3969 11.5427 44.7989 11.7878 44.7989 11.7878C44.7989 12.0329 44.7235 12.3024 44.5477 12.4495C44.5477 12.4495 44.0954 12.3024 43.5426 12.3024C42.8894 12.3024 42.5879 12.523 42.5879 12.9641C42.5879 13.4052 43.1909 13.5278 43.7939 13.7238C44.422 13.9199 45.0502 14.214 45.0502 15.1207C45.0502 16.052 44.4471 16.5911 43.2411 16.5911C42.2361 16.5911 41.6582 16.248 41.6582 16.248C41.6582 15.9785 41.7336 15.7089 41.9095 15.5619C41.9095 15.5619 42.5376 15.7824 43.1909 15.7824C43.7688 15.7824 44.0954 15.5619 44.0954 15.1207C44.0954 14.6061 43.5677 14.5081 43.015 14.3365C42.3617 14.1405 41.6582 13.8954 41.6582 12.9641C41.6833 12.1309 42.2612 11.5427 43.4672 11.5427Z" fill="#53565A"/>
<path d="M47.3868 14.7531C47.3868 15.5863 47.6631 15.8559 48.3415 15.8559C48.5425 15.8559 48.7435 15.8069 48.7435 15.8069C48.7435 15.8069 48.8189 15.9539 48.8189 16.1745C48.8189 16.395 48.7687 16.5176 48.7687 16.5176C48.5928 16.5666 48.3415 16.5911 48.0903 16.5911C46.9345 16.5911 46.4571 15.9784 46.4571 14.8021V12.3269H45.7285C45.7285 12.3269 45.6782 12.2044 45.6782 11.9838C45.6782 11.7632 45.7285 11.6407 45.7285 11.6407H46.4571V10.783C46.7084 10.6359 47.0601 10.5624 47.4119 10.5869V11.6162H48.643C48.643 11.6162 48.6933 11.7387 48.6933 11.9593C48.6933 12.1799 48.643 12.3024 48.643 12.3024H47.4119V14.7531H47.3868Z" fill="#53565A"/>
<path d="M53.0905 13.9199C52.9147 13.2827 52.8644 12.8661 52.8393 12.5965H52.789C52.7639 12.8906 52.7137 13.3072 52.5127 13.9199L51.7589 16.4196C51.6081 16.4686 51.4322 16.4931 51.2061 16.4931C51.0051 16.4931 50.8292 16.4686 50.6534 16.4196L49.2212 11.6897C49.2212 11.6897 49.3971 11.6162 49.6986 11.6162C50.0252 11.6162 50.1006 11.6897 50.1006 11.6897L51.0051 14.6306C51.1307 15.0227 51.181 15.3413 51.2061 15.5373H51.2312C51.2564 15.3413 51.3066 15.0472 51.4322 14.6306L52.3116 11.6897C52.3116 11.6897 52.5378 11.6162 52.8142 11.6162C53.1157 11.6162 53.2664 11.6897 53.2664 11.6897L54.1207 14.6306C54.2463 15.0472 54.2966 15.3658 54.3217 15.5618H54.3468C54.3971 15.3658 54.4473 15.0717 54.573 14.6551L55.4523 11.7142C55.4523 11.7142 55.6031 11.6407 55.8795 11.6407C56.181 11.6407 56.2815 11.7142 56.2815 11.7142L54.8996 16.4196C54.7237 16.4686 54.5478 16.4931 54.3719 16.4931C54.1709 16.4931 53.9951 16.4686 53.8192 16.4196L53.0905 13.9199Z" fill="#53565A"/>
<path d="M59.0705 12.2534C58.367 12.2534 57.9399 12.6455 57.9399 14.0669C57.9399 15.4883 58.3921 15.8804 59.0705 15.8804C59.774 15.8804 60.2012 15.4883 60.2012 14.0669C60.2012 12.6455 59.774 12.2534 59.0705 12.2534ZM59.0705 11.5427C60.377 11.5427 61.1811 12.2289 61.1811 14.0669C61.1811 15.9049 60.377 16.5911 59.0705 16.5911C57.764 16.5911 56.96 15.9049 56.96 14.0669C56.96 12.2289 57.764 11.5427 59.0705 11.5427Z" fill="#53565A"/>
<path d="M65.6282 13.9199C65.4523 13.2827 65.4021 12.8661 65.3769 12.5965H65.3267C65.3015 12.8906 65.2513 13.3072 65.0503 13.9199L64.3216 16.4196C64.1709 16.4686 63.995 16.4931 63.794 16.4931C63.593 16.4931 63.4171 16.4686 63.2412 16.4196L61.8091 11.6897C61.8091 11.6897 61.985 11.6162 62.2865 11.6162C62.6131 11.6162 62.6885 11.6897 62.6885 11.6897L63.593 14.6306C63.7186 15.0227 63.7689 15.3413 63.794 15.5373H63.8191C63.8443 15.3413 63.8945 15.0472 64.0201 14.6306L64.8995 11.6897C64.8995 11.6897 65.1257 11.6162 65.402 11.6162C65.7036 11.6162 65.8543 11.6897 65.8543 11.6897L66.7086 14.6306C66.8342 15.0472 66.8845 15.3658 66.9096 15.5618H66.9347C66.9598 15.3658 67.0352 15.0717 67.1608 14.6551L68.0402 11.7142C68.0402 11.7142 68.191 11.6407 68.4674 11.6407C68.7689 11.6407 68.8694 11.7142 68.8694 11.7142L67.4623 16.4196C67.2865 16.4686 67.1106 16.4931 66.9347 16.4931C66.7337 16.4931 66.5578 16.4686 66.3819 16.4196L65.6282 13.9199Z" fill="#53565A"/>
<path d="M72.0604 17.2038C71.7087 18.2331 71.382 18.7967 70.3519 18.7967C70.0504 18.7967 69.8242 18.6987 69.8242 18.6987C69.8242 18.6987 69.7489 18.5517 69.7489 18.3556C69.7489 18.1595 69.8242 17.988 69.8242 17.988C69.8242 17.988 70.0253 18.037 70.2514 18.037C70.6785 18.037 70.9046 17.9145 71.181 17.0567L71.382 16.4931C71.2815 16.4931 71.181 16.4686 71.0805 16.4196L69.2715 11.6897C69.2715 11.6897 69.4474 11.6162 69.774 11.6162C70.1006 11.6162 70.2765 11.6897 70.2765 11.6897L71.3569 14.508C71.583 15.1452 71.6835 15.5863 71.6835 15.5863H71.7338C71.7338 15.5863 71.8343 15.1452 72.0353 14.508L72.9649 11.6897C72.9649 11.6897 73.1157 11.6162 73.4172 11.6162C73.6936 11.6162 73.8695 11.6897 73.8695 11.6897L72.0604 17.2038Z" fill="#53565A"/>
<path d="M77.8642 16.4196C77.8642 16.4196 77.7134 16.4931 77.3617 16.4931C77.0602 16.4931 76.8843 16.4196 76.8843 16.4196V9.82727H80.6531C80.7034 9.9253 80.7285 10.0478 80.7285 10.1949C80.7285 10.3419 80.7034 10.4644 80.6531 10.587H77.839V12.8416H80.3265C80.3767 12.9396 80.4019 13.0622 80.4019 13.2092C80.4019 13.3563 80.3767 13.5033 80.3265 13.6013H77.839V16.4196H77.8642Z" fill="#53565A"/>
<path d="M81.583 11.6897C81.583 11.6897 81.7338 11.6162 82.0604 11.6162C82.387 11.6162 82.5378 11.6897 82.5378 11.6897V15.0227C82.5378 15.5373 82.8142 15.8314 83.4172 15.8314C83.8443 15.8314 84.2212 15.6108 84.4976 15.2432V11.6897C84.4976 11.6897 84.6735 11.6162 84.975 11.6162C85.3016 11.6162 85.4524 11.6897 85.4524 11.6897V16.4196C85.4524 16.4196 85.3016 16.4931 84.975 16.4931C84.6735 16.4931 84.4976 16.4196 84.4976 16.4196V16.0029C84.1458 16.3705 83.6433 16.5911 83.0654 16.5911C82.1106 16.5911 81.6081 16.0274 81.6081 15.1942V11.6897H81.583Z" fill="#53565A"/>
<path d="M90.653 16.4196C90.653 16.4196 90.5023 16.4931 90.1757 16.4931C89.849 16.4931 89.6983 16.4196 89.6983 16.4196V13.1111C89.6983 12.5965 89.4219 12.3024 88.8189 12.3024C88.3917 12.3024 87.9897 12.523 87.7385 12.8906V16.4196C87.7385 16.4196 87.5626 16.4931 87.2611 16.4931C86.9344 16.4931 86.7837 16.4196 86.7837 16.4196V11.6897C86.7837 11.6897 86.9344 11.6162 87.2611 11.6162C87.5626 11.6162 87.7385 11.6897 87.7385 11.6897V12.1064C88.0902 11.7388 88.5676 11.5182 89.1706 11.5182C90.1254 11.5182 90.6279 12.0818 90.6279 12.9151V16.4196H90.653Z" fill="#53565A"/>
<path d="M93.9196 12.3025C93.1658 12.3025 92.7889 12.6946 92.7889 14.067C92.7889 15.4394 93.1658 15.8315 93.9196 15.8315C94.5729 15.8315 94.9497 15.2923 94.9497 14.6552V13.4543C94.9497 12.8417 94.5729 12.3025 93.9196 12.3025ZM95.4271 9.55774C95.7286 9.55774 95.8794 9.63126 95.8794 9.63126V16.4197C95.8794 16.4197 95.7286 16.4932 95.4774 16.4932C95.2512 16.4932 95.0502 16.4197 95.0502 16.4197L94.9749 15.9295C94.6985 16.3461 94.2713 16.5912 93.5427 16.5912C92.4623 16.5912 91.7588 15.954 91.7588 14.067C91.7588 12.18 92.4623 11.5428 93.5427 11.5428C94.196 11.5428 94.6231 11.7634 94.8995 12.1555V9.63126C94.9497 9.63126 95.1256 9.55774 95.4271 9.55774Z" fill="#53565A"/>
<path d="M97.2363 11.6897C97.2363 11.6897 97.3871 11.6162 97.7137 11.6162C98.0403 11.6162 98.1911 11.6897 98.1911 11.6897V15.0227C98.1911 15.5373 98.4675 15.8314 99.0705 15.8314C99.4976 15.8314 99.8745 15.6108 100.151 15.2432V11.6897C100.151 11.6897 100.327 11.6162 100.628 11.6162C100.955 11.6162 101.106 11.6897 101.106 11.6897V16.4196C101.106 16.4196 100.955 16.4931 100.628 16.4931C100.327 16.4931 100.151 16.4196 100.151 16.4196V16.0029C99.7991 16.3705 99.2966 16.5911 98.7187 16.5911C97.764 16.5911 97.2615 16.0274 97.2615 15.1942V11.6897H97.2363Z" fill="#53565A"/>
<path d="M104.045 11.5427C104.975 11.5427 105.377 11.7878 105.377 11.7878C105.377 12.0329 105.301 12.3024 105.126 12.4495C105.126 12.4495 104.673 12.3024 104.12 12.3024C103.467 12.3024 103.141 12.523 103.141 12.9641C103.141 13.4052 103.744 13.5278 104.347 13.7238C104.975 13.9199 105.603 14.214 105.603 15.1207C105.603 16.052 105 16.5911 103.794 16.5911C102.789 16.5911 102.211 16.248 102.211 16.248C102.211 15.9785 102.286 15.7089 102.462 15.5619C102.462 15.5619 103.065 15.7824 103.744 15.7824C104.321 15.7824 104.648 15.5619 104.648 15.1207C104.648 14.6061 104.12 14.5081 103.568 14.3365C102.914 14.1405 102.211 13.8954 102.211 12.9641C102.261 12.1309 102.839 11.5427 104.045 11.5427Z" fill="#53565A"/>
<path d="M109.95 15.7335C109.95 15.7335 110 15.856 110 16.1011C110 16.3216 109.95 16.4687 109.95 16.4687H106.432C106.407 16.3461 106.382 16.2236 106.382 16.0766C106.382 15.9295 106.407 15.807 106.432 15.709L108.945 12.3515H106.583C106.583 12.3515 106.533 12.2045 106.533 11.9594C106.533 11.7143 106.583 11.5918 106.583 11.5918H109.95C109.975 11.6653 110 11.8124 110 11.9594C110 12.1064 109.975 12.2535 109.95 12.3515L107.437 15.709H109.95V15.7335Z" fill="#53565A"/>
<path d="M27.3117 24.0412H28.6433C29.372 24.0412 29.7991 23.6246 29.7991 22.8894C29.7991 22.1542 29.372 21.7131 28.6433 21.7131H27.3117V24.0412ZM28.769 20.9288C30.0001 20.9288 30.8041 21.7131 30.8041 22.8894C30.8041 23.7961 30.3016 24.5068 29.4725 24.7274L31.1308 27.5212C31.1308 27.5212 30.9298 27.5947 30.5529 27.5947C30.2011 27.5947 30.0001 27.5212 30.0001 27.5212L28.4172 24.8254H27.2865V27.5212C27.2865 27.5212 27.1358 27.5947 26.8092 27.5947C26.4574 27.5947 26.3066 27.5212 26.3066 27.5212V20.9288H28.769Z" fill="#53565A"/>
<path d="M34.02 23.3551C33.4169 23.3551 32.9647 23.7472 32.8893 24.7765H34.9245C34.9245 24.703 34.9496 24.5559 34.9496 24.3599C34.9496 23.8207 34.7235 23.3551 34.02 23.3551ZM32.8893 25.4382C32.9647 26.541 33.4169 26.8841 34.1958 26.8841C34.8742 26.8841 35.3014 26.6145 35.3014 26.6145C35.4772 26.7615 35.6029 27.0066 35.6029 27.2762C35.6029 27.2762 35.0501 27.6683 34.02 27.6683C32.5627 27.6683 31.8843 26.786 31.8843 25.1196C31.8843 23.3796 32.7385 22.6199 33.9948 22.6199C35.1506 22.6199 35.8793 23.2571 35.8793 24.4824C35.8793 25.0706 35.7787 25.4382 35.7787 25.4382H32.8893Z" fill="#53565A"/>
<path d="M40.8542 27.5212C40.8542 27.5212 40.7035 27.5947 40.3768 27.5947C40.0502 27.5947 39.8994 27.5212 39.8994 27.5212V24.1883C39.8994 23.6736 39.6231 23.3796 39.02 23.3796C38.5929 23.3796 38.1909 23.6001 37.9396 23.9677V27.5212C37.9396 27.5212 37.7638 27.5947 37.4623 27.5947C37.1356 27.5947 36.9849 27.5212 36.9849 27.5212V20.7328C36.9849 20.7328 37.1356 20.6593 37.4623 20.6593C37.7638 20.6593 37.9396 20.7328 37.9396 20.7328V23.2325C38.2914 22.8649 38.7688 22.6444 39.3718 22.6444C40.3266 22.6444 40.8291 23.208 40.8291 24.0412V27.5212H40.8542Z" fill="#53565A"/>
<path d="M43.8441 25.3157C43.2159 25.3157 42.8893 25.5607 42.8893 26.1489C42.8893 26.7616 43.1908 26.9821 43.7184 26.9821C44.4722 26.9821 44.824 26.3695 44.824 25.7078V25.3892C44.5727 25.3647 44.1958 25.3157 43.8441 25.3157ZM43.9195 22.6444C45.3014 22.6444 45.7285 23.2571 45.7285 24.4334V27.5213C45.7285 27.5213 45.628 27.5948 45.3516 27.5948C45.1255 27.5948 44.9747 27.5213 44.9747 27.5213L44.824 26.9331C44.5727 27.4232 44.0451 27.6928 43.3416 27.6928C42.4622 27.6928 41.8843 27.1782 41.8843 26.1489C41.8843 25.1441 42.5124 24.703 43.6933 24.703C44.1205 24.703 44.5225 24.7275 44.7737 24.752V24.4089C44.7737 23.7717 44.5225 23.4286 43.7938 23.4286C43.1406 23.4286 42.5124 23.6492 42.5124 23.6492C42.5124 23.6492 42.3868 23.5757 42.2863 23.3796C42.2109 23.1836 42.236 23.012 42.236 22.9875C42.2612 22.9875 42.9898 22.6444 43.9195 22.6444Z" fill="#53565A"/>
<path d="M49.0704 23.4041C48.4171 23.4041 48.0402 23.9432 48.0402 24.5804V25.7567C48.0402 26.3939 48.4171 26.9331 49.0704 26.9331C49.8241 26.9331 50.201 26.541 50.201 25.1686C50.201 23.7717 49.8241 23.4041 49.0704 23.4041ZM48.0402 23.2325C48.3166 22.8649 48.7437 22.6199 49.397 22.6199C50.4774 22.6199 51.1809 23.257 51.1809 25.1441C51.1809 27.0311 50.4774 27.6683 49.397 27.6683C48.7186 27.6683 48.2915 27.4477 48.0402 27.0556V27.4967C48.0402 27.4967 47.8895 27.5702 47.5628 27.5702C47.2613 27.5702 47.0854 27.4967 47.0854 27.4967V20.7328C47.0854 20.7328 47.2362 20.6593 47.5628 20.6593C47.8895 20.6593 48.0402 20.7328 48.0402 20.7328V23.2325Z" fill="#53565A"/>
<path d="M53.3168 27.5212C53.3168 27.5212 53.1661 27.5947 52.8394 27.5947C52.5128 27.5947 52.362 27.5212 52.362 27.5212V22.7914C52.362 22.7914 52.5128 22.7179 52.8394 22.7179C53.1409 22.7179 53.3168 22.7914 53.3168 22.7914V27.5212ZM53.3419 21.7866C53.3419 21.7866 53.1661 21.8601 52.8394 21.8601C52.4877 21.8601 52.3369 21.7866 52.3369 21.7866V20.9289C52.3369 20.9289 52.4877 20.8553 52.8394 20.8553C53.1661 20.8553 53.3419 20.9289 53.3419 20.9289V21.7866Z" fill="#53565A"/>
<path d="M55.7033 27.5212C55.7033 27.5212 55.5526 27.5947 55.2259 27.5947C54.8993 27.5947 54.7485 27.5212 54.7485 27.5212V20.7328C54.7485 20.7328 54.8993 20.6593 55.2259 20.6593C55.5274 20.6593 55.7033 20.7328 55.7033 20.7328V27.5212Z" fill="#53565A"/>
<path d="M58.0902 27.5212C58.0902 27.5212 57.9395 27.5947 57.6129 27.5947C57.2862 27.5947 57.1355 27.5212 57.1355 27.5212V22.7914C57.1355 22.7914 57.2862 22.7179 57.6129 22.7179C57.9144 22.7179 58.0902 22.7914 58.0902 22.7914V27.5212ZM58.1154 21.7866C58.1154 21.7866 57.9395 21.8601 57.6129 21.8601C57.2611 21.8601 57.1104 21.7866 57.1104 21.7866V20.9289C57.1104 20.9289 57.2611 20.8553 57.6129 20.8553C57.9395 20.8553 58.1154 20.9289 58.1154 20.9289V21.7866Z" fill="#53565A"/>
<path d="M60.754 25.8548C60.754 26.688 61.0303 26.9576 61.7087 26.9576C61.9097 26.9576 62.1107 26.9086 62.1107 26.9086C62.1107 26.9086 62.1861 27.0556 62.1861 27.2762C62.1861 27.4968 62.1359 27.6193 62.1359 27.6193C61.96 27.6683 61.7087 27.6928 61.4575 27.6928C60.3017 27.6928 59.8243 27.0801 59.8243 25.9038V23.4286H59.0957C59.0957 23.4286 59.0454 23.3061 59.0454 23.0855C59.0454 22.865 59.0957 22.7424 59.0957 22.7424H59.8243V21.9092C60.0756 21.7622 60.4273 21.6886 60.7791 21.7131V22.7424H62.0102C62.0102 22.7424 62.0605 22.865 62.0605 23.0855C62.0605 23.3061 62.0102 23.4286 62.0102 23.4286H60.7791V25.8548H60.754Z" fill="#53565A"/>
<path d="M64.7235 25.3157C64.0953 25.3157 63.7687 25.5607 63.7687 26.1489C63.7687 26.7616 64.0702 26.9821 64.5978 26.9821C65.3516 26.9821 65.7034 26.3695 65.7034 25.7078V25.3892C65.4521 25.3647 65.0752 25.3157 64.7235 25.3157ZM64.7988 22.6444C66.1808 22.6444 66.6079 23.2571 66.6079 24.4334V27.5213C66.6079 27.5213 66.5074 27.5948 66.231 27.5948C66.0049 27.5948 65.8541 27.5213 65.8541 27.5213L65.7034 26.9331C65.4521 27.4232 64.9245 27.6928 64.221 27.6928C63.3416 27.6928 62.7637 27.1782 62.7637 26.1489C62.7637 25.1441 63.3918 24.703 64.5727 24.703C64.9999 24.703 65.4019 24.7275 65.6531 24.752V24.4089C65.6531 23.7717 65.4019 23.4286 64.6732 23.4286C64.02 23.4286 63.3918 23.6492 63.3918 23.6492C63.3918 23.6492 63.2662 23.5757 63.1657 23.3796C63.0903 23.1836 63.1154 23.012 63.1154 22.9875C63.1406 22.9875 63.8692 22.6444 64.7988 22.6444Z" fill="#53565A"/>
<path d="M68.7187 25.1686C68.7187 26.3695 69.1207 26.9086 70.0252 26.9086C70.5528 26.9086 70.9046 26.7616 70.9046 26.7616C71.0554 26.9086 71.181 27.1782 71.181 27.4232C71.181 27.4232 70.7538 27.6928 69.8242 27.6928C68.4423 27.6928 67.7388 26.8106 67.7388 25.1686C67.7388 23.5267 68.4423 22.6444 69.8242 22.6444C70.7287 22.6444 71.1056 22.865 71.1056 22.865C71.1056 23.11 71.0051 23.3796 70.8292 23.5267C70.8292 23.5267 70.5026 23.3796 70.0001 23.3796C69.0956 23.4041 68.7187 23.9678 68.7187 25.1686Z" fill="#53565A"/>
<path d="M73.1912 21.7866C73.1912 21.7866 73.0153 21.8601 72.6886 21.8601C72.3369 21.8601 72.1861 21.7866 72.1861 21.7866V20.9289C72.1861 20.9289 72.3369 20.8553 72.6886 20.8553C73.0153 20.8553 73.1912 20.9289 73.1912 20.9289V21.7866ZM72.2113 22.7914C72.2113 22.7914 72.362 22.7179 72.6886 22.7179C72.9902 22.7179 73.166 22.7914 73.166 22.7914V28.4035C73.166 29.3837 72.6886 29.8984 71.7841 29.8984C71.3821 29.8984 71.156 29.8249 71.156 29.8249C71.156 29.8249 71.1309 29.7268 71.1309 29.6043C71.1309 29.2857 71.2314 29.1387 71.2314 29.1387C71.2314 29.1387 71.3821 29.1877 71.5831 29.1877C72.0103 29.1877 72.2364 28.9671 72.2364 28.4525V22.7914H72.2113Z" fill="#53565A"/>
<path d="M75.5277 27.5212C75.5277 27.5212 75.377 27.5947 75.0504 27.5947C74.7237 27.5947 74.573 27.5212 74.573 27.5212V22.7914C74.573 22.7914 74.7237 22.7179 75.0504 22.7179C75.3519 22.7179 75.5277 22.7914 75.5277 22.7914V27.5212ZM75.5529 21.7866C75.5529 21.7866 75.377 21.8601 75.0504 21.8601C74.6986 21.8601 74.5479 21.7866 74.5479 21.7866V20.9289C74.5479 20.9289 74.6986 20.8553 75.0504 20.8553C75.377 20.8553 75.5529 20.9289 75.5529 20.9289V21.7866Z" fill="#53565A"/>
<path d="M81.6081 21.6395C80.6031 21.6395 79.9498 22.2277 79.9498 24.2863C79.9498 26.3204 80.6031 26.933 81.6081 26.933C82.6132 26.933 83.2664 26.3449 83.2664 24.2863C83.2664 22.2277 82.6132 21.6395 81.6081 21.6395ZM81.6081 20.8308C83.2413 20.8308 84.2715 21.8601 84.2715 24.2618C84.2715 26.6634 83.2664 27.6927 81.6081 27.6927C79.9498 27.6927 78.9448 26.6634 78.9448 24.2618C78.9448 21.8846 79.975 20.8308 81.6081 20.8308Z" fill="#53565A"/>
<path d="M87.0854 22.6444C88.0151 22.6444 88.4171 22.8895 88.4171 22.8895C88.4171 23.1345 88.3417 23.4041 88.1658 23.5512C88.1658 23.5512 87.7136 23.4041 87.1608 23.4041C86.5075 23.4041 86.206 23.6247 86.206 24.0658C86.206 24.5069 86.809 24.6295 87.412 24.8255C88.0402 25.0216 88.6683 25.3157 88.6683 26.2224C88.6683 27.1537 88.0653 27.6928 86.8593 27.6928C85.8543 27.6928 85.2764 27.3497 85.2764 27.3497C85.2764 27.0802 85.3517 26.8351 85.5276 26.6635C85.5276 26.6635 86.1306 26.8841 86.809 26.8841C87.3869 26.8841 87.7136 26.6635 87.7136 26.2224C87.7136 25.7078 87.1859 25.6097 86.6331 25.4382C85.9799 25.2421 85.2764 24.9726 85.2764 24.0658C85.3015 23.2081 85.8794 22.6444 87.0854 22.6444Z" fill="#53565A"/>
<path d="M91.6833 20.4142C91.9848 20.3652 92.3617 20.5367 92.5124 20.7573L91.3315 22.0071C91.1054 21.9581 90.9044 21.8846 90.7787 21.713L91.6833 20.4142ZM91.633 23.355C90.9295 23.355 90.5024 23.7471 90.5024 25.1685C90.5024 26.5899 90.9546 26.982 91.633 26.982C92.3114 26.982 92.7637 26.5899 92.7637 25.1685C92.7637 23.7471 92.3365 23.355 91.633 23.355ZM91.633 22.6443C92.9396 22.6443 93.7436 23.3305 93.7436 25.1685C93.7436 27.0065 92.9396 27.6927 91.633 27.6927C90.3265 27.6927 89.5225 27.0065 89.5225 25.1685C89.5225 23.3305 90.3265 22.6443 91.633 22.6443Z" fill="#53565A"/>
<path d="M96.8843 23.4041C96.2311 23.4041 95.8542 23.9432 95.8542 24.5804V25.7567C95.8542 26.3939 96.2311 26.9331 96.8843 26.9331C97.6381 26.9331 98.015 26.541 98.015 25.1686C98.015 23.7717 97.6381 23.4041 96.8843 23.4041ZM95.8542 23.2325C96.1306 22.8649 96.5577 22.6199 97.211 22.6199C98.2914 22.6199 98.9949 23.257 98.9949 25.1441C98.9949 27.0311 98.2914 27.6683 97.211 27.6683C96.5326 27.6683 96.1054 27.4477 95.8542 27.0556V27.4967C95.8542 27.4967 95.7034 27.5702 95.3768 27.5702C95.0753 27.5702 94.8994 27.4967 94.8994 27.4967V20.7328C94.8994 20.7328 95.0502 20.6593 95.3768 20.6593C95.7034 20.6593 95.8542 20.7328 95.8542 20.7328V23.2325Z" fill="#53565A"/>
<path d="M27.764 34.4077C27.4122 33.795 27.2112 33.2068 27.2112 33.2068H27.161C27.161 33.2068 27.2363 33.8195 27.2363 34.7508V38.5984C27.2363 38.5984 27.0856 38.6719 26.7841 38.6719C26.4826 38.6719 26.3569 38.5984 26.3569 38.5984V32.104C26.3569 32.104 26.5579 32.0305 26.9348 32.0305C27.3117 32.0305 27.5127 32.104 27.5127 32.104L29.8745 36.2702C30.2263 36.8829 30.4524 37.4956 30.4524 37.4956H30.4775C30.4775 37.4956 30.4022 36.8094 30.4022 35.9516V32.104C30.4022 32.104 30.5529 32.0305 30.8544 32.0305C31.1559 32.0305 31.2816 32.104 31.2816 32.104V38.6229C31.2816 38.6229 31.1057 38.6964 30.7288 38.6964C30.3519 38.6964 30.1509 38.6229 30.1509 38.6229L27.764 34.4077Z" fill="#53565A"/>
<path d="M33.7939 38.6228C33.7939 38.6228 33.6431 38.6963 33.3165 38.6963C32.9898 38.6963 32.8391 38.6228 32.8391 38.6228V33.893C32.8391 33.893 32.9898 33.8194 33.3165 33.8194C33.618 33.8194 33.7939 33.893 33.7939 33.893V38.6228ZM33.819 32.8882C33.819 32.8882 33.6431 32.9617 33.3165 32.9617C32.9647 32.9617 32.814 32.8882 32.814 32.8882V32.0304C32.814 32.0304 32.9647 31.9569 33.3165 31.9569C33.6431 31.9569 33.819 32.0304 33.819 32.0304V32.8882Z" fill="#53565A"/>
<path d="M37.0857 34.4566C36.4575 34.4566 36.0304 34.8487 35.955 35.878H37.9902C37.9902 35.8045 38.0153 35.6575 38.0153 35.4614C38.0153 34.9223 37.7892 34.4566 37.0857 34.4566ZM35.955 36.5397C36.0304 37.6425 36.4826 37.9856 37.2615 37.9856C37.9399 37.9856 38.3922 37.7161 38.3922 37.7161C38.5681 37.8631 38.6937 38.1082 38.6937 38.3777C38.6937 38.3777 38.1661 38.7698 37.1108 38.7698C35.6535 38.7698 34.9751 37.8876 34.9751 36.2211C34.9751 34.4811 35.8294 33.7214 37.0857 33.7214C38.2414 33.7214 38.9701 34.3586 38.9701 35.584C38.9701 36.1721 38.8696 36.5397 38.8696 36.5397H35.955Z" fill="#53565A"/>
<path d="M42.0604 34.4811C41.4071 34.4811 41.0302 35.0203 41.0302 35.6575V36.8338C41.0302 37.471 41.4071 38.0101 42.0604 38.0101C42.8142 38.0101 43.191 37.618 43.191 36.2456C43.191 34.8733 42.8142 34.4811 42.0604 34.4811ZM42.387 33.7214C43.4674 33.7214 44.1709 34.3586 44.1709 36.2456C44.1709 38.1327 43.4674 38.7698 42.387 38.7698C41.7086 38.7698 41.2815 38.5493 41.0302 38.1572V40.7549C41.0302 40.7549 40.8795 40.8039 40.5528 40.8039C40.2513 40.8039 40.1006 40.7549 40.1006 40.7549V33.8685C40.1006 33.8685 40.2513 33.795 40.5528 33.795C40.8795 33.795 41.0302 33.8685 41.0302 33.8685V34.3096C41.2815 33.942 41.7086 33.7214 42.387 33.7214Z" fill="#53565A"/>
<path d="M47.236 34.4566C46.6079 34.4566 46.1808 34.8487 46.1054 35.878H48.1406C48.1406 35.8045 48.1657 35.6575 48.1657 35.4614C48.1657 34.9223 47.9396 34.4566 47.236 34.4566ZM46.1054 36.5397C46.1808 37.6425 46.633 37.9856 47.4119 37.9856C48.0903 37.9856 48.5426 37.7161 48.5426 37.7161C48.7185 37.8631 48.8441 38.1082 48.8441 38.3777C48.8441 38.3777 48.2913 38.7698 47.2612 38.7698C45.8039 38.7698 45.1255 37.8876 45.1255 36.2211C45.1255 34.4811 45.9798 33.7214 47.236 33.7214C48.3918 33.7214 49.1205 34.3586 49.1205 35.584C49.1205 36.1721 49.02 36.5397 49.02 36.5397H46.1054Z" fill="#53565A"/>
<path d="M51.1556 31.7609C51.4571 31.7609 51.633 31.8344 51.633 31.8344V34.3831L52.2862 34.0155C52.2862 34.0155 52.3616 34.089 52.4872 34.2361C52.5877 34.4076 52.5877 34.5056 52.5877 34.5301L51.633 35.0693V38.6473C51.633 38.6473 51.4822 38.7208 51.1556 38.7208C50.8289 38.7208 50.6782 38.6473 50.6782 38.6473V35.5839L50.05 35.927C50.05 35.927 49.9747 35.8535 49.8742 35.7065C49.7737 35.5349 49.7485 35.4369 49.7485 35.4124L50.6782 34.8977V31.8099C50.6782 31.8099 50.8289 31.7609 51.1556 31.7609Z" fill="#53565A"/>
<path d="M57.3366 38.6228C57.3366 38.6228 57.1859 38.6963 56.8592 38.6963C56.5326 38.6963 56.3819 38.6228 56.3819 38.6228V35.2899C56.3819 34.7752 56.1055 34.4811 55.5025 34.4811C55.0753 34.4811 54.6733 34.7017 54.4221 35.0693V38.6228C54.4221 38.6228 54.2462 38.6963 53.9447 38.6963C53.618 38.6963 53.4673 38.6228 53.4673 38.6228V33.893C53.4673 33.893 53.618 33.8195 53.9447 33.8195C54.2462 33.8195 54.4221 33.893 54.4221 33.893V34.3096C54.7738 33.942 55.2512 33.7214 55.8542 33.7214C56.809 33.7214 57.3115 34.2851 57.3115 35.1183V38.6228H57.3366Z" fill="#53565A"/>
<path d="M60.5778 34.4321C59.8743 34.4321 59.4472 34.8242 59.4472 36.2456C59.4472 37.667 59.8994 38.0592 60.5778 38.0592C61.2814 38.0592 61.7085 37.667 61.7085 36.2456C61.7085 34.8242 61.2562 34.4321 60.5778 34.4321ZM60.5778 33.7214C61.8844 33.7214 62.6884 34.4076 62.6884 36.2456C62.6884 38.0837 61.8844 38.7698 60.5778 38.7698C59.2713 38.7698 58.4673 38.0837 58.4673 36.2456C58.4673 34.4321 59.2713 33.7214 60.5778 33.7214Z" fill="#53565A"/>
<path d="M65.4018 33.7214C66.3315 33.7214 66.7335 33.9665 66.7335 33.9665C66.7335 34.2116 66.6581 34.4811 66.4822 34.6282C66.4822 34.6282 66.03 34.4811 65.4772 34.4811C64.8239 34.4811 64.5224 34.7017 64.5224 35.1428C64.5224 35.584 65.1254 35.7065 65.7285 35.9025C66.3315 36.0986 66.9847 36.3927 66.9847 37.2994C66.9847 38.2307 66.3817 38.7698 65.1757 38.7698C64.1707 38.7698 63.5928 38.4268 63.5928 38.4268C63.5928 38.1572 63.6682 37.8876 63.844 37.7406C63.844 37.7406 64.4722 37.9611 65.1254 37.9611C65.7033 37.9611 66.03 37.7406 66.03 37.2994C66.03 36.7848 65.5023 36.6868 64.9496 36.5152C64.2963 36.3192 63.5928 36.0741 63.5928 35.1428C63.6179 34.3096 64.1958 33.7214 65.4018 33.7214Z" fill="#53565A"/>
<path d="M70.0501 34.4811C69.3969 34.4811 69.02 35.0203 69.02 35.6575V36.8338C69.02 37.471 69.3969 38.0101 70.0501 38.0101C70.8039 38.0101 71.1808 37.618 71.1808 36.2456C71.1808 34.8733 70.8039 34.4811 70.0501 34.4811ZM70.3768 33.7214C71.4572 33.7214 72.1607 34.3586 72.1607 36.2456C72.1607 38.1327 71.4572 38.7698 70.3768 38.7698C69.6984 38.7698 69.2712 38.5493 69.02 38.1572V40.7549C69.02 40.7549 68.8692 40.8039 68.5426 40.8039C68.2411 40.8039 68.0903 40.7549 68.0903 40.7549V33.8685C68.0903 33.8685 68.2411 33.795 68.5426 33.795C68.8692 33.795 69.02 33.8685 69.02 33.8685V34.3096C69.2712 33.942 69.6984 33.7214 70.3768 33.7214Z" fill="#53565A"/>
<path d="M75.4523 33.746C75.8041 33.746 76.0554 33.844 76.2815 33.9665C76.2564 34.3096 76.1307 34.5302 75.8544 34.7508C75.6785 34.6282 75.4775 34.5547 75.2765 34.5547C74.8996 34.5547 74.5478 34.8243 74.2966 35.2654V38.6228C74.2966 38.6228 74.1458 38.6964 73.8192 38.6964C73.4925 38.6964 73.3418 38.6228 73.3418 38.6228V33.893C73.3418 33.893 73.4925 33.8195 73.8192 33.8195C74.1207 33.8195 74.2966 33.893 74.2966 33.893V34.5302C74.6483 33.942 75.0755 33.746 75.4523 33.746Z" fill="#53565A"/>
<path d="M78.6432 36.4172C78.015 36.4172 77.6884 36.6623 77.6884 37.2504C77.6884 37.8631 77.9899 38.0837 78.5175 38.0837C79.2713 38.0837 79.6231 37.471 79.6231 36.8093V36.4907C79.3969 36.4417 79.0201 36.4172 78.6432 36.4172ZM78.7437 33.7214C80.1256 33.7214 80.5527 34.3341 80.5527 35.5104V38.5983C80.5527 38.5983 80.4522 38.6718 80.1758 38.6718C79.9497 38.6718 79.799 38.5983 79.799 38.5983L79.6482 38.0101C79.3969 38.5003 78.8693 38.7698 78.1658 38.7698C77.2864 38.7698 76.7085 38.2552 76.7085 37.2259C76.7085 36.2211 77.3366 35.78 78.5175 35.78C78.9447 35.78 79.3467 35.8045 79.5979 35.829V35.4859C79.5979 34.8488 79.3467 34.5057 78.618 34.5057C77.9648 34.5057 77.3366 34.7262 77.3366 34.7262C77.3366 34.7262 77.211 34.6527 77.1105 34.4566C77.0351 34.2606 77.0603 34.089 77.0603 34.0645C77.0854 34.0645 77.7889 33.7214 78.7437 33.7214Z" fill="#53565A"/>
<path d="M85.2263 36.1231C85.0504 35.4859 85.0002 35.0693 84.975 34.7997H84.9248C84.8997 35.0938 84.8494 35.5104 84.6484 36.1231L83.8946 38.6228C83.7439 38.6718 83.568 38.6963 83.3419 38.6963C83.1409 38.6963 82.965 38.6718 82.7891 38.6228L81.3569 33.893C81.3569 33.893 81.5328 33.8195 81.8343 33.8195C82.161 33.8195 82.2363 33.893 82.2363 33.893L83.1409 36.8338C83.2665 37.2259 83.3167 37.5445 83.3419 37.7406H83.367C83.3921 37.5445 83.4424 37.2504 83.568 36.8338L84.4474 33.893C84.4474 33.893 84.6735 33.8195 84.9499 33.8195C85.2514 33.8195 85.4022 33.893 85.4022 33.893L86.2564 36.8338C86.3821 37.2504 86.4323 37.569 86.4574 37.7651H86.4826C86.5328 37.569 86.5831 37.2749 86.7087 36.8583L87.5881 33.9175C87.5881 33.9175 87.7388 33.844 88.0152 33.844C88.3167 33.844 88.4172 33.9175 88.4172 33.9175L86.9851 38.6473C86.8092 38.6963 86.6333 38.7208 86.4574 38.7208C86.2564 38.7208 86.0806 38.6963 85.9047 38.6473L85.2263 36.1231Z" fill="#53565A"/>
<path d="M93.2663 38.6228C93.2663 38.6228 93.1156 38.6963 92.7889 38.6963C92.4623 38.6963 92.3115 38.6228 92.3115 38.6228V35.2899C92.3115 34.7752 92.0352 34.4811 91.4322 34.4811C91.005 34.4811 90.603 34.7017 90.3518 35.0693V38.6228C90.3518 38.6228 90.1759 38.6963 89.8744 38.6963C89.5477 38.6963 89.397 38.6228 89.397 38.6228V33.893C89.397 33.893 89.5477 33.8195 89.8744 33.8195C90.1759 33.8195 90.3518 33.893 90.3518 33.893V34.3096C90.7035 33.942 91.1809 33.7214 91.7839 33.7214C92.7387 33.7214 93.2412 34.2851 93.2412 35.1183V38.6228H93.2663Z" fill="#53565A"/>
<path d="M96.8344 39.407C96.4826 40.4363 96.156 41 95.1258 41C94.8243 41 94.5982 40.9019 94.5982 40.9019C94.5982 40.9019 94.5228 40.7549 94.5228 40.5588C94.5228 40.3628 94.5982 40.1912 94.5982 40.1912C94.5982 40.1912 94.7992 40.2403 95.0253 40.2403C95.4525 40.2403 95.6786 40.1177 95.955 39.26L96.156 38.6963C96.0555 38.6963 95.955 38.6718 95.8545 38.6228L94.0454 33.893C94.0454 33.893 94.2213 33.8195 94.5479 33.8195C94.8746 33.8195 95.0504 33.893 95.0504 33.893L96.1308 36.7113C96.357 37.3484 96.4575 37.7896 96.4575 37.7896H96.4826C96.4826 37.7896 96.5831 37.3484 96.7841 36.7113L97.7138 33.893C97.7138 33.893 97.8645 33.8195 98.166 33.8195C98.4424 33.8195 98.6183 33.893 98.6183 33.893L96.8344 39.407Z" fill="#53565A"/>
<path d="M100.302 36.2456C100.302 37.4465 100.704 37.9856 101.608 37.9856C102.136 37.9856 102.488 37.8386 102.488 37.8386C102.638 37.9856 102.764 38.2552 102.764 38.5003C102.764 38.5003 102.337 38.7698 101.407 38.7698C100.025 38.7698 99.3218 37.8876 99.3218 36.2456C99.3218 34.6037 100.025 33.7214 101.407 33.7214C102.312 33.7214 102.689 33.942 102.689 33.942C102.689 34.1871 102.588 34.4566 102.412 34.6037C102.412 34.6037 102.086 34.4566 101.583 34.4566C100.679 34.4811 100.302 35.0448 100.302 36.2456Z" fill="#53565A"/>
<path d="M107.638 38.6229C107.638 38.6229 107.488 38.6964 107.161 38.6964C106.834 38.6964 106.684 38.6229 106.684 38.6229V35.2899C106.684 34.7753 106.407 34.4812 105.804 34.4812C105.377 34.4812 104.975 34.7018 104.724 35.0694V38.6229C104.724 38.6229 104.548 38.6964 104.246 38.6964C103.92 38.6964 103.769 38.6229 103.769 38.6229V31.81C103.769 31.81 103.92 31.7365 104.246 31.7365C104.548 31.7365 104.724 31.81 104.724 31.81V34.3097C105.076 33.9421 105.553 33.7215 106.156 33.7215C107.111 33.7215 107.638 34.2852 107.638 35.1184V38.6229Z" fill="#53565A"/>
<path d="M2.18604 20.2917C1.70865 20.2917 1.30664 20.6839 1.30664 21.1495V37.7897C1.30664 38.2553 1.70865 38.6474 2.18604 38.6474C2.66342 38.6474 3.06543 38.2553 3.06543 37.7897V21.1495C3.04031 20.6839 2.66342 20.2917 2.18604 20.2917Z" fill="#48A23F"/>
<path d="M7.91452 30.5846C9.44719 26.2959 12.5879 23.2816 16.5829 22.1788C15.201 25.7568 12.3618 29.3838 7.91452 30.5846ZM17.7638 20.1937C12.8894 20.9044 8.94467 24.0168 6.83412 28.6486C6.73362 24.8745 7.28638 20.6839 8.84417 17.3019C9.04518 16.8608 8.84417 16.3706 8.41703 16.1746C7.96477 15.9785 7.46226 16.1746 7.26126 16.5912C3.76879 24.1148 4.89945 34.5302 7.23613 38.2308C7.41201 38.5004 7.68839 38.6474 7.9899 38.6474C8.14065 38.6474 8.31653 38.5984 8.44216 38.5249C8.84417 38.2798 8.9698 37.7406 8.71854 37.3485C8.01502 36.2457 7.53764 34.6283 7.18588 32.5207C13.6432 31.3934 17.3869 26.0264 18.7185 21.2965C18.7437 21.1985 18.7688 21.076 18.7437 20.9534C18.6934 20.4388 18.2412 20.1202 17.7638 20.1937Z" fill="#48A23F"/>
<path d="M0.879497 24.997C0.477487 24.997 0.125728 24.7274 0.0252256 24.3353C-0.075277 23.8697 0.226231 23.4285 0.678492 23.306L7.73879 21.7866C8.21618 21.6886 8.66844 21.9826 8.79407 22.4238C8.89457 22.8894 8.59307 23.3305 8.14081 23.4285L1.0805 24.948C1.00513 24.997 0.929748 24.997 0.879497 24.997Z" fill="#CB333B"/>
<path d="M16.2561 11.2977C15.5024 14.1895 12.8642 16.2236 9.79885 16.2236C9.27121 16.2236 8.71845 16.15 8.19081 16.0275C6.48227 15.6109 5.02498 14.5571 4.09533 13.0867C3.19081 11.5918 2.91443 9.85177 3.34157 8.1853L4.6481 3.06337L6.30639 5.73462C6.43202 5.93067 6.6079 6.07771 6.83403 6.12673C7.06016 6.17574 7.28629 6.15123 7.48729 6.0287L11.3064 3.79857L13.1406 6.78841L9.34659 9.01854C8.91946 9.26361 8.79383 9.77825 9.04508 10.1949C9.22096 10.4644 9.49734 10.6115 9.79885 10.6115C9.9496 10.6115 10.1004 10.5625 10.2511 10.489L14.7989 7.8177L17.5375 6.20025L16.2561 11.2977ZM19.422 3.70055C19.1456 3.50449 18.7436 3.47998 18.4421 3.65153L14.6481 5.88166L12.3617 2.18112C12.236 1.98506 12.0602 1.83802 11.834 1.78901C11.6079 1.74 11.3818 1.7645 11.1808 1.88704L7.38679 4.11716L5.05011 0.416625C4.87423 0.122542 4.52247 -0.0490059 4.17071 7.88737e-06C3.81895 0.0490216 3.54257 0.29409 3.44207 0.637187L1.65815 7.76869C1.10538 9.90079 1.45714 12.0819 2.61292 13.9689C3.7687 15.8314 5.60287 17.1548 7.7888 17.694C8.46719 17.8655 9.14559 17.939 9.82398 17.939C13.6933 17.939 17.035 15.3903 17.9647 11.7143L19.7737 4.6073C19.8491 4.2642 19.6984 3.8966 19.422 3.70055Z" fill="#CB333B"/>
</g>
<defs>
<clipPath id="clip0_1445_5258">
<rect width="110" height="41" fill="white"/>
</clipPath>
</defs>
</svg>
